<?xml version="1.0"?>
<svg xmlns="http://www.w3.org/2000/svg" height="512px" viewBox="0 -16 512 512" width="512px"><path d="m286.492188 240c0-25.636719-20.855469-46.492188-46.492188-46.492188s-46.492188 20.855469-46.492188 46.492188 20.855469 46.492188 46.492188 46.492188 46.492188-20.855469 46.492188-46.492188zm-46.492188 16.492188c-9.09375 0-16.492188-7.398438-16.492188-16.492188s7.398438-16.492188 16.492188-16.492188 16.492188 7.398438 16.492188 16.492188-7.398438 16.492188-16.492188 16.492188zm0 0" fill="#1ae18d"/><path d="m169.183594 211.679688c7.71875-19.289063 23.210937-34.777344 42.496094-42.5l12.589843-5.039063-26.703125-92.761719-14.992187 5.269532c-24.25 8.523437-46.71875 22.683593-64.980469 40.945312-18.257812 18.261719-32.417969 40.730469-40.941406 64.980469l-5.273438 14.992187 92.761719 26.703125zm-58.078125-33.894532c14.042969-28.902344 37.777343-52.636718 66.675781-66.683594l10.402344 36.128907c-17.113282 9.597656-31.355469 23.839843-40.953125 40.953125zm0 0" fill="#1ae18d"/><path d="m310.820312 211.679688 5.039063 12.589843 92.761719-26.703125-5.269532-14.992187c-8.527343-24.25-22.683593-46.71875-40.945312-64.980469s-40.730469-32.421875-64.976562-40.945312l-14.992188-5.273438-26.707031 92.761719 12.59375 5.042969c19.285156 7.722656 34.773437 23.210937 42.496093 42.5zm58.074219-33.894532-36.125 10.398438c-9.597656-17.117188-23.835937-31.355469-40.953125-40.953125l10.402344-36.128907c28.898438 14.046876 52.632812 37.78125 66.675781 66.683594zm0 0" fill="#1ae18d"/><path d="m169.183594 268.320312-5.042969-12.589843-92.761719 26.703125 5.269532 14.996094c8.523437 24.246093 22.683593 46.714843 40.945312 64.976562s40.730469 32.417969 64.980469 40.941406l14.992187 5.273438 26.703125-92.761719-12.59375-5.039063c-19.28125-7.722656-34.773437-23.210937-42.492187-42.5zm-58.082032 33.898438 36.132813-10.402344c9.59375 17.117188 23.835937 31.355469 40.949219 40.953125l-10.398438 36.125c-28.902344-14.042969-52.640625-37.777343-66.683594-66.675781zm0 0" fill="#1ae18d"/><path d="m408.621094 282.433594-92.761719-26.703125-5.039063 12.589843c-7.722656 19.289063-23.210937 34.777344-42.5 42.5l-12.589843 5.039063 26.703125 92.761719 14.992187-5.273438c24.25-8.523437 46.71875-22.679687 64.980469-40.941406s32.421875-40.730469 40.945312-64.976562zm-106.402344 86.460937-10.402344-36.125c17.117188-9.597656 31.355469-23.835937 40.953125-40.953125l36.128907 10.402344c-14.046876 28.898438-37.78125 52.632812-66.679688 66.675781zm0 0" fill="#1ae18d"/><path d="m512 450h-155.617188c19.316407-10.742188 37.261719-24.234375 53.324219-40.292969 45.328125-45.332031 70.292969-105.601562 70.292969-169.707031s-24.964844-124.375-70.292969-169.707031c-45.332031-45.328125-105.601562-70.292969-169.707031-70.292969s-124.375 24.964844-169.707031 70.292969c-45.328125 45.332031-70.292969 105.601562-70.292969 169.707031s24.964844 124.375 70.292969 169.707031c45.332031 45.328125 105.601562 70.292969 169.707031 70.292969h272zm-482-210c0-115.792969 94.207031-210 210-210s210 94.207031 210 210-94.207031 210-210 210-210-94.207031-210-210zm0 0" fill="#1ae18d"/></svg>
