<?xml version="1.0" encoding="utf-8"?>
<!-- Svg Vector Icons : http://www.onlinewebfonts.com/icon -->
<!DOCTYPE svg PUBLIC "-//W3C//DTD SVG 1.1//EN" "http://www.w3.org/Graphics/SVG/1.1/DTD/svg11.dtd">
<svg version="1.1" xmlns="http://www.w3.org/2000/svg" xmlns:xlink="http://www.w3.org/1999/xlink" x="0px" y="0px" viewBox="0 0 1000 1000" enable-background="new 0 0 1000 1000" xml:space="preserve">
<metadata> Svg Vector Icons : http://www.onlinewebfonts.com/icon </metadata>
<g><g transform="translate(0.000000,512.000000) scale(0.100000,-0.100000)"><path style="fill:#F22B2B;" d="M5590.8,5014.4c-423.6-51.7-797.3-130.3-1418.3-295.2c-454.2-120.7-657.4-159.1-1012-189.7l-216.6-21.1l-67.1,67.1c-36.4,36.4-111.2,90.1-166.7,120.7l-99.7,51.7H1796H981.4l-95.8-46c-120.7-61.3-251.1-189.7-302.8-304.7l-42.2-90.1V2361.8V416.5l51.8-95.8C659.4,190.3,768.7,86.8,895.2,25.5l105.4-49.8h766.6c421.7,0,799.2,7.7,837.6,15.3c38.3,7.7,115,44.1,168.7,80.5l99.7,67.1l124.6-120.7c228.1-216.6,356.5-452.3,588.4-1073.3c220.4-592.2,285.6-690,845.2-1259.2c354.6-362.2,414-431.2,484.9-567.3c145.7-283.7,258.7-674.6,318.2-1115.5c59.4-423.6,172.5-613.3,444.6-736c143.7-65.1,381.4-61.3,529,7.7c207,97.7,364.2,262.6,515.6,540.5c180.2,333.5,254.9,663.1,254.9,1104c0,488.7-34.5,590.3-394.8,1169.1c-208.9,335.4-341.2,571.2-341.2,611.4c0,9.6,30.7,30.7,69,49.8c59.4,26.8,164.9,32.6,875.9,38.3c1036.9,5.7,1357,38.3,1594.6,157.2c120.7,61.3,417.8,360.3,506,507.9c222.3,381.4,228.1,617.1,19.2,1052.2l-97.8,205.1L9288,840c122.6,207,161,335.4,162.9,534.7c1.9,155.2-3.8,185.9-57.5,297.1c-32.6,69-113.1,195.5-178.3,281.7l-118.8,157.2l51.7,159.1c38.3,120.7,51.7,199.3,53.7,333.5c1.9,162.9-1.9,180.2-70.9,318.2c-38.3,80.5-126.5,222.3-195.5,314.3c-69,93.9-124.6,182.1-124.6,199.3c0,15.3,17.3,101.6,38.3,191.7c46,199.3,46,270.2,3.8,387.2c-99.7,276-423.6,546.2-808.8,672.7c-276,92-887.4,212.7-1447,283.7C6305.7,5006.7,5734.6,5031.7,5590.8,5014.4z M6558.7,4357c168.7-23,427.4-63.3,575-90.1c624.8-111.2,885.5-199.3,1048.4-350.7l86.3-78.6l-36.4-166.7c-24.9-109.2-34.5-220.4-30.6-312.4c5.7-162.9,23-195.5,245.3-498.3c74.8-99.7,139.9-203.2,147.6-228.1c7.7-28.8-15.3-120.8-61.3-258.7c-111.1-325.8-97.7-408.2,128.4-703.4c176.3-230,197.4-274.1,170.6-360.3c-11.5-38.3-67.1-145.7-124.6-239.6c-113.1-185.9-157.1-320.1-138-423.6c7.7-36.4,69-178.2,138-314.3c155.2-308.6,162.9-350.7,93.9-492.6c-72.8-147.6-262.6-346.9-352.7-369.9c-170.6-46-557.7-65.1-1326.3-69c-720.7-3.8-829.9-9.6-920-38.3c-164.8-53.7-272.2-115-389.1-222.3c-314.3-285.6-272.1-546.2,214.7-1318.6c258.7-412.1,302.8-502.1,331.6-663.1c28.7-172.5,11.5-492.6-40.2-690c-51.8-203.1-170.6-446.6-270.2-553.9c-134.2-147.6-161-120.7-208.9,205.1c-70.9,460-157.2,787.7-287.5,1090.5c-138,316.3-226.2,437-632.5,849.1c-354.6,362.2-496.4,525.2-588.4,680.4c-21.1,36.4-97.7,222.3-168.7,412.1C3831.4,37,3651.2,314.9,3172.1,673.3l-111.2,82.4V2335v1579.3h82.4c124.6,0,538.6,53.7,722.6,95.8c90.1,19.2,323.9,78.6,523.2,132.2C5414.5,4416.4,5795.9,4454.8,6558.7,4357z M2447.6,2361.8V579.4H1796h-651.6v1782.4v1782.4H1796h651.6V2361.8z"/></g></g>
</svg>